<?xml version="1.0" encoding="UTF-8" standalone="no"?>
<!-- Created with Inkscape (http://www.inkscape.org/) -->
<svg
   xmlns:svg="http://www.w3.org/2000/svg"
   xmlns="http://www.w3.org/2000/svg"
   version="1.0"
   width="645"
   height="330"
   id="svg3372">
  <defs
     id="defs3374" />
  <path
     d="M 206.46872,39.432255 C 213.12254,38.141533 217.52205,38.17784 219.08554,39.850393 C 220.06724,40.88669 220.33995,42.668282 219.06738,44.904436 C 218.3765,46.08608 217.64935,47.122377 216.30402,48.722159 C 159.78291,115.31489 116.73307,213.61323 104.4981,241.97373 C 103.57089,243.95535 102.64373,245.90058 101.91653,247.1732 C 100.80758,249.17299 99.280473,250.79098 96.571653,250.99096 C 95.080914,251.04544 93.008436,250.71825 89.881502,248.84575 C 52.358331,225.68464 30.106206,196.90599 30.106206,165.61852 C 30.106206,109.13372 102.69827,60.648105 206.46872,39.432255 M 264.3897,81.900301 C 269.69814,69.574391 278.89716,43.159152 299.96764,32.687525 C 306.36686,29.487922 314.23877,27.99714 321.29249,27.778984 C 322.91059,27.778984 324.01953,27.778984 324.51035,27.778984 C 383.48579,27.778984 438.35248,35.959899 484.36562,49.958401 C 484.72927,50.103786 485.78367,50.521963 486.09269,50.612829 C 490.36494,52.049014 492.51018,53.99428 492.51018,56.39407 C 492.51018,58.539241 491.41941,60.102793 489.92862,61.611671 C 489.23781,62.284272 488.29246,63.102414 487.00173,64.193192 C 476.40294,73.064959 444.42457,96.171556 384.21295,119.18721 C 363.08797,127.25905 336.65446,137.31246 309.03936,143.18456 C 292.80472,146.62057 232.62953,155.78315 264.3897,81.900301 M 545.26801,84.009165 C 546.35887,82.009379 547.90409,80.355078 550.59473,80.155134 C 552.14003,80.100576 554.13981,80.464155 557.2849,82.336652 C 594.77175,105.46142 617.07834,134.29462 617.07834,165.58206 C 617.07834,222.04865 544.46812,270.51605 440.71585,291.7138 C 434.02568,293.00453 429.66252,293.00453 428.08084,291.33201 C 427.09914,290.22306 426.82642,288.47778 428.11722,286.25984 C 428.77169,285.09629 429.51702,284.04189 430.86242,282.442 C 487.38341,215.83117 530.46969,117.53283 542.68653,89.190459 C 543.5955,87.190712 544.52268,85.281792 545.26801,84.009165 M 383.75839,249.00935 C 378.43171,261.35344 369.2691,287.75058 348.14418,298.25851 C 341.81755,301.38542 333.90932,302.9489 326.80105,303.11253 C 325.25572,303.20344 324.12861,303.16705 323.65596,303.16705 C 264.68051,303.16705 209.79566,294.98618 163.7643,280.98764 C 163.41888,280.86043 162.4008,280.44225 162.07361,280.29682 C 157.78313,278.87881 155.61973,276.96993 155.61973,274.55201 C 155.61973,272.42497 156.72873,270.82515 158.27401,269.35266 C 158.89213,268.6799 159.87383,267.84362 161.16462,266.80744 C 171.74529,257.89929 203.72358,234.75635 263.93521,211.74069 C 285.07833,203.66882 311.51179,193.5972 339.12695,187.74326 C 355.34337,184.32554 415.5186,175.18106 383.75839,249.00935 M 323.60142,329.29144 C 500.12754,329.29144 643.20277,256.00854 643.20277,165.67304 C 643.20277,75.192035 500.12754,2 323.60142,2 C 147.1116,2 4,75.192035 4,165.67304 C 4,256.00854 147.1116,329.29144 323.60142,329.29144"
     id="path337"
     style="fill:#163d7d;fill-opacity:1;fill-rule:nonzero;stroke:none" />
</svg>
