<svg xmlns="http://www.w3.org/2000/svg" xmlns:cc="http://creativecommons.org/ns#" xmlns:dc="http://purl.org/dc/elements/1.1/" xmlns:rdf="http://www.w3.org/1999/02/22-rdf-syntax-ns#" version="1.1" width="522" height="123" style=""><rect id="backgroundrect" width="100%" height="100%" x="0" y="0" fill="none" stroke="none" class="" style=""/>
 <metadata>
  <rdf:RDF>
   <cc:Work rdf:about="">
    <dc:format>image/svg+xml</dc:format>
    <dc:type rdf:resource="http://purl.org/dc/dcmitype/StillImage"/>
    <dc:title/>
   </cc:Work>
  </rdf:RDF>
 </metadata>
 
<g class="currentLayer" style=""><title>Layer 1</title><g fill="none" fill-rule="evenodd" id="svg_1" class="">
  <path d="M302.8375517177582,108.72296219354423 c0,0.991712079048157 0.3131722354888917,1.5658611774444582 0.8873213338851932,1.5658611774444582 c0.46975835323333753,-0.05219537258148195 0.8873213338851932,-0.2609768629074099 1.2526889419555665,-0.5219537258148194 L467.6705383300781,4.175630912835926 a15.65861177444458,15.65861177444458 0 0 1 9.395167064666751,-2.8185501194000246 h35.75383021831512 c5.480514121055603,0 9.186385574340822,3.6536760807037356 9.186385574340822,9.134190201759338 v68.27154733657837 c0,8.246868867874145 -1.8268380403518678,13.048843145370483 -9.134190201759338,17.433254442214967 l-43.37435461521149,26.097686290740967 a2.9751362371444707,2.9751362371444707 0 0 1 -1.4614704322814942,0.5219537258148194 c-0.5219537258148194,0 -1.0439074516296387,-0.41756298065185565 -1.0439074516296387,-1.9312287855148318 V41.2343454456881 c0,-0.939516706466675 -0.2609768629074099,-1.5658611774444582 -0.8873213338851932,-1.5658611774444582 a2.453182511329651,2.453182511329651 0 0 0 -1.2526889419555665,0.5219537258148194 l-118.90105874061585,77.24915142059326 c-2.7141593742370604,1.8268380403518678 -5.898077101707458,2.8185501194000246 -9.134190201759338,2.7663547468185428 h-78.81501259803771 c-5.5327094936370855,0 -9.186385574340822,-3.6536760807037356 -9.186385574340822,-9.186385574340822 V12.631281271035999 c0,-0.7307352161407473 -0.3131722354888917,-1.4092750597000123 -0.939516706466675,-1.4092750597000123 a2.5575732564926152,2.5575732564926152 0 0 0 -1.2526889419555665,0.5219537258148194 l-78.44964498996734,47.0802260684967 c-0.7829305887222289,0.5219537258148194 -0.991712079048157,0.8873213338851932 -0.991712079048157,1.2526889419555665 c0,0.3131722354888917 0.15658611774444586,0.6263444709777833 0.6785398435592652,1.2004935693740846 L223.9181483745575,117.28300329690727 c0.7307352161407473,0.7307352161407473 1.2526889419555665,1.3048843145370483 1.2526889419555665,1.9312287855148318 c0,0.5219537258148194 -0.8351259613037112,0.939516706466675 -1.8268380403518678,0.939516706466675 h-50.62951140403747 c-3.9668483161926282,0 -7.046375298500061,-0.5741490983963015 -9.186385574340822,-2.7141593742370604 L129.54891474723817,83.51259723668846 a1.4614704322814942,1.4614704322814942 0 0 0 -1.0439074516296387,-0.5219537258148194 a2.2444010210037235,2.2444010210037235 0 0 0 -1.0439074516296387,0.3131722354888917 L70.67253447532653,117.43958941465172 c-3.4448945903778085,2.0878149032592774 -5.793686356544495,2.661964001655579 -9.186385574340822,2.661964001655579 H9.238580946922303 C3.6536760807037356,120.15374878888878 0,116.44787733560355 0,110.96736321454797 V44.00070019250664 c0,-8.299064240455628 1.8268380403518678,-13.048843145370483 9.186385574340822,-17.433254442214967 l43.63533147811889,-26.20207703590393 a2.2444010210037235,2.2444010210037235 0 0 1 1.1482981967926027,-0.3653676080703736 c0.6785398435592652,0 1.0439074516296387,0.6785398435592652 1.0439074516296387,2.1922056484222416 V91.86385684972558 c0,0.939516706466675 0.20878149032592783,1.3570796871185302 0.8873213338851932,1.3570796871185302 c0.46975835323333753,-0.05219537258148195 0.8873213338851932,-0.2609768629074099 1.3048843145370483,-0.5219537258148194 L204.6058605194092,4.01904479509148 c2.8185501194000246,-1.9312287855148318 6.263444709777832,-2.8707454919815065 9.70833930015564,-2.7141593742370604 h79.33696632385254 c5.480514121055603,0 9.186385574340822,3.6536760807037356 9.186385574340822,9.134190201759338 l-0.05219537258148195,98.28388657093048 z" fill="#131E29" fill-rule="nonzero" id="svg_2"/>
 </g></g></svg>