<svg width="49" height="32" viewBox="0 0 49 32" fill="none" xmlns="http://www.w3.org/2000/svg">
<path d="M22.7228 30.3022C20.1815 28.7107 18.3101 23.2178 18.3101 16.6922C18.3101 16.4527 18.3111 16.2162 18.3172 15.9808L18.3202 15.9838C11.253 14.8733 6.14605 11.8298 6.0157 8.23149L5.99448 8.27292C4.26455 10.4222 3.27732 12.9069 3.27732 15.5544C3.27732 23.3451 11.8289 29.7283 22.6763 30.2931L22.7228 30.3022ZM0.0104675 16.1233C0.0104675 7.40594 10.8589 0.337692 24.2416 0.337692C37.6242 0.337692 48.4727 7.40594 48.4727 16.1233C48.4727 24.8406 37.6242 31.9089 24.2416 31.9089C10.8589 31.9089 0.0104675 24.8406 0.0104675 16.1233ZM24.2416 2.61529C26.8253 2.61529 29.0221 6.5339 29.8365 12.0026L29.8396 11.9945C34.8657 11.2124 38.3851 9.40667 38.3851 7.30691C38.3851 4.4877 32.0525 2.20605 24.2416 2.20605C16.4306 2.20605 10.098 4.48871 10.098 7.30691C10.098 9.40667 13.6165 11.2114 18.6436 11.9945L18.6466 12.0026C19.461 6.53491 21.6588 2.61529 24.2416 2.61529ZM25.8058 30.2931C36.6532 29.7283 45.2058 23.3451 45.2058 15.5544C45.2058 12.9069 44.2176 10.4222 42.4887 8.27292L42.4674 8.23149C42.3371 11.8298 37.2312 14.8733 30.1629 15.9838L30.166 15.9808C30.171 16.2162 30.173 16.4527 30.173 16.6922C30.173 23.2178 28.2996 28.7107 25.7603 30.3022L25.8058 30.2931ZM24.2416 12.4088C25.3996 12.4088 26.5242 12.3593 27.6004 12.2643L27.5994 12.2653C27.0638 8.75997 25.7623 6.28634 24.2416 6.28634C22.7208 6.28634 21.4203 8.75997 20.8838 12.2653L20.8828 12.2643C21.9589 12.3593 23.0836 12.4088 24.2416 12.4088ZM24.2416 25.3893C26.1867 25.3893 27.7732 21.3413 27.858 16.2647L27.8681 16.2678C26.696 16.3759 25.4834 16.4335 24.2416 16.4335C22.9997 16.4335 21.7871 16.3769 20.615 16.2678L20.6261 16.2647C20.71 21.3424 22.2964 25.3893 24.2416 25.3893Z" fill="#FF0000"/>
</svg>
